<svg width="68" height="40" viewBox="0 0 68 40" fill="none" xmlns="http://www.w3.org/2000/svg">
<path d="M20.5606 0.0741122C21.5299 -0.25693 22.3712 0.595755 23.0505 1.15669C26.8681 4.30744 29.6337 9.51551 33.0319 12.8443C33.9309 13.7254 34.3036 13.5557 35.1541 12.7147C37.8521 10.0472 40.342 6.00194 43.0165 3.1304C46.413 -0.51608 47.2435 -1.48664 50.0317 3.43887C53.9955 10.4418 51.1973 13.0516 50.2289 19.6357C49.7877 22.6377 49.9924 25.9188 49.8337 28.9475C50.3442 30.2257 54.8252 30.7457 56.3191 31.2105C58.3444 31.84 66.0807 34.3663 67.2279 35.4973C70.0478 38.2786 64.3812 38.9306 62.4302 39.163C56.4971 39.8694 46.6344 40.3175 40.7739 39.7256C37.4468 39.3896 36.3523 35.7598 34.017 33.8246C31.6783 36.2906 30.8286 39.2374 26.9517 39.698C22.0863 40.2765 13.4644 39.8142 8.41611 39.4447C7.13774 39.3511 1.64659 38.5879 0.80019 38.057C-0.341153 37.3415 -0.21248 36.0139 0.874554 35.2833C5.31125 32.3006 12.0858 31.9185 16.7798 30.0844C17.1859 29.9256 17.7816 29.7292 17.9788 29.3137C18.283 28.675 18.1986 22.9612 18.115 21.8569C17.6446 15.6281 14.1989 11.8353 17.1266 5.37831C17.4641 4.63263 20.1078 0.22793 20.559 0.0741122H20.5606ZM28.2518 9.89002C28.5233 10.8104 31.3566 15.6657 32.0434 15.5186C33.5073 15.2043 30.2278 11.7626 29.8008 11.2936C29.3513 10.8004 28.8182 10.2436 28.2526 9.89002H28.2518ZM35.566 15.5186C36.2896 16.2258 38.386 12.6236 38.7077 12.0502C39.0202 11.4934 39.4438 10.8096 39.5006 10.1717C38.818 10.6115 35.0472 15.0111 35.566 15.5186ZM33.3051 14.3917L33.2942 16.0795L34.4464 16.087L34.4573 14.3992L33.3051 14.3917ZM22.2894 19.5287C21.2057 19.6056 20.132 19.8723 19.8688 21.0702C19.624 22.1846 19.6491 26.8192 19.7945 28.0606C20.0526 30.2617 22.8458 28.2378 23.7507 27.4871C24.5194 26.8493 27.3243 23.5138 27.407 22.682C27.6042 20.7016 23.9187 19.4125 22.2894 19.5279V19.5287ZM43.5997 26.626C44.2815 27.3023 47.1708 30.1438 48.1016 28.7661C48.1893 28.6365 48.4734 26.7314 48.5035 26.3544C48.6029 25.1171 48.4951 20.6857 47.4933 20.0537C45.7696 18.9653 41.6287 20.0913 40.7606 22.0057C40.2768 23.074 42.7901 25.8244 43.5997 26.6269V26.626ZM24.7567 28.6248C24.349 29.0027 23.5786 29.7266 23.1684 30.0008C21.7772 30.9321 19.5705 31.0082 19.8655 33.0404C20.1729 35.1604 21.5299 34.7592 23.0505 34.1046C24.7509 33.3723 27.8465 29.2351 28.8751 27.5456C29.7683 26.0777 30.1585 25.2952 28.672 23.9694C27.1021 25.2977 26.2473 27.2438 24.7575 28.624L24.7567 28.6248ZM39.1146 23.9794C38.3801 24.0981 38.2715 25.3704 38.4428 26.0066C38.66 26.8141 41.6061 30.8803 42.3255 31.6979C43.7067 33.2695 48.3456 36.9995 48.1885 32.538C48.1309 30.8928 45.854 30.7047 44.7102 29.8754C43.5847 29.0595 39.7521 23.8766 39.1146 23.9802V23.9794ZM16.6378 31.6134C16.2543 31.6711 15.8532 31.9812 15.5934 32.2697C18.2512 35.6286 19.1202 31.2431 16.6378 31.6134ZM49.9147 33.5361C50.4988 33.9374 53.4566 32.0105 51.1154 31.6176C49.8287 31.4019 49.5805 32.5263 49.9147 33.5361Z" fill="black"/>
</svg>
