<svg width="40" height="40" viewBox="0 0 40 40" fill="none" xmlns="http://www.w3.org/2000/svg">
<path d="M20 0.5C30.7696 0.5 39.5 9.23045 39.5 20C39.5 30.7696 30.7696 39.5 20 39.5C9.23045 39.5 0.5 30.7696 0.5 20C0.5 9.23045 9.23045 0.5 20 0.5Z" fill="#306D68"/>
<path d="M20 0.5C30.7696 0.5 39.5 9.23045 39.5 20C39.5 30.7696 30.7696 39.5 20 39.5C9.23045 39.5 0.5 30.7696 0.5 20C0.5 9.23045 9.23045 0.5 20 0.5Z" stroke="#306D68" stroke-linecap="round"/>
<path d="M25 25C23.8954 25 23 25.8954 23 27C23 28.1046 23.8954 29 25 29C26.1046 29 27 28.1046 27 27C27 25.8954 26.1046 25 25 25ZM25 25H17.2939C16.8329 25 16.6019 25 16.4121 24.918C16.2447 24.8456 16.0994 24.7291 15.9935 24.5805C15.8749 24.414 15.8272 24.1913 15.7327 23.7505L13.2715 12.2646C13.1748 11.8136 13.1259 11.5884 13.0059 11.4199C12.9 11.2713 12.7548 11.1544 12.5873 11.082C12.3975 11 12.1678 11 11.7065 11H11M14 14H26.8732C27.595 14 27.9555 14 28.1978 14.1504C28.41 14.2821 28.5653 14.4886 28.633 14.729C28.7104 15.0034 28.611 15.35 28.411 16.0435L27.0264 20.8435C26.9068 21.2581 26.8469 21.465 26.7256 21.6189C26.6185 21.7547 26.4772 21.861 26.317 21.9263C26.1361 22 25.9211 22 25.4921 22H15.7305M16 29C14.8954 29 14 28.1046 14 27C14 25.8954 14.8954 25 16 25C17.1046 25 18 25.8954 18 27C18 28.1046 17.1046 29 16 29Z" stroke="white" stroke-linecap="round" stroke-linejoin="round"/>
</svg>
