<svg width="40" height="40" viewBox="0 0 40 40" fill="none" xmlns="http://www.w3.org/2000/svg">
<path d="M20 0.5C30.7696 0.5 39.5 9.23045 39.5 20C39.5 30.7696 30.7696 39.5 20 39.5C9.23045 39.5 0.5 30.7696 0.5 20C0.5 9.23045 9.23045 0.5 20 0.5Z" fill="#306D68"/>
<path d="M20 0.5C30.7696 0.5 39.5 9.23045 39.5 20C39.5 30.7696 30.7696 39.5 20 39.5C9.23045 39.5 0.5 30.7696 0.5 20C0.5 9.23045 9.23045 0.5 20 0.5Z" stroke="#306D68" stroke-linecap="round"/>
<path d="M27.2373 14.2373C28.7839 15.784 28.8432 18.2727 27.3718 19.8911L19.9995 28.0001L12.6281 19.8911C11.1568 18.2727 11.216 15.7839 12.7627 14.2373C14.4896 12.5103 17.3337 12.6681 18.8594 14.5752L20 16.0005L21.1396 14.575C22.6653 12.668 25.5104 12.5104 27.2373 14.2373Z" stroke="white" stroke-linecap="round" stroke-linejoin="round"/>
</svg>
