<svg width="16" height="20" viewBox="0 0 16 20" fill="none" xmlns="http://www.w3.org/2000/svg">
<path fill-rule="evenodd" clip-rule="evenodd" d="M11.3 0.33018L15.74 5.33018C15.9067 5.51358 15.9994 5.75234 16 6.00018V17.5002C15.9921 18.1712 15.7179 18.8116 15.2378 19.2804C14.7577 19.7493 14.111 20.0082 13.44 20.0002H2.56C1.88899 20.0082 1.24229 19.7493 0.762182 19.2804C0.282078 18.8116 0.00790949 18.1712 0 17.5002V2.50018C0.00790949 1.82917 0.282078 1.18879 0.762182 0.719934C1.24229 0.251083 1.88899 -0.00782364 2.56 0.000180201H10.56C10.8422 0.000847164 11.1109 0.120701 11.3 0.33018ZM8 10.0002H5C4.44772 10.0002 4 10.4479 4 11.0002C4 11.5525 4.44772 12.0002 5 12.0002H8C8.55229 12.0002 9 11.5525 9 11.0002C9 10.4479 8.55229 10.0002 8 10.0002ZM5 16.0002C4.44772 16.0002 4 15.5525 4 15.0002C4 14.4479 4.44772 14.0002 5 14.0002H11C11.5523 14.0002 12 14.4479 12 15.0002C12 15.5525 11.5523 16.0002 11 16.0002H5ZM10 5.15018C9.96519 5.57975 10.2811 5.95794 10.71 6.00018H13.74L10 2.00018V5.15018Z" fill="#306D68"/>
</svg>
