<svg width="139" height="35" viewBox="0 0 139 35" fill="none" xmlns="http://www.w3.org/2000/svg">
<path d="M5.63258 28.7386C8.83277 31.9976 14.2341 30.4913 13.1937 25.9722C12.4429 22.7114 2.44617 20.4477 0.652151 15.3046C-3.14635 4.41458 10.5395 -2.6898 18.6833 4.39161C20.5987 6.05696 22.1307 8.01641 18.9554 9.31781C16.5235 10.3141 16.5226 7.7315 14.6073 6.61116C10.3253 4.1067 5.76033 8.76269 9.39524 12.1329C13.0642 15.5344 21.2098 16.2071 21.9276 22.5027C23.0737 32.5573 13.565 37.3733 5.00485 33.8551C1.99766 32.6189 -2.81181 28.7386 2.30647 26.7158C4.64366 25.7921 4.34496 27.4262 5.63441 28.7386H5.63258Z" fill="black"/>
<path d="M113.15 31.0879C114.418 32.3525 113.401 33.9627 111.535 34.1217C109.738 34.2761 105.001 34.0234 103.618 33.0372C101.881 31.7983 101.587 28.8601 101.451 26.8482C101.004 20.2558 100.905 9.20857 101.451 2.68411C101.532 1.71449 101.612 0.55463 102.682 0.201708C103.64 -0.114451 108.183 -0.17235 108.539 0.88182L108.609 28.0458C109.12 31.6568 112.197 30.1394 113.149 31.0879H113.15Z" fill="black"/>
<path d="M122.664 0.375492C123.118 0.512433 123.389 1.59877 123.444 2.07117C124.384 10.1194 122.356 20.447 123.458 28.3629C123.962 31.9804 129.81 29.6377 127.925 33.4922C127.229 34.9168 120.969 33.3645 119.325 33.734C116.852 33.1742 116.447 29.2305 116.307 27.158C115.838 20.2393 115.763 8.93385 116.304 2.06198C116.351 1.46643 116.486 0.941637 116.628 0.374572C118.188 0.666836 121.343 -0.0224646 122.663 0.374572L122.664 0.375492Z" fill="black"/>
<path d="M78.2977 33.7559C77.7692 32.9122 79.5108 28.1689 79.8904 26.9272C80.7139 24.2334 83.279 15.3506 84.7458 13.6062C86.2467 11.8214 89.7603 11.9482 91.0672 14.0207C92.7923 16.755 95.9088 27.202 96.9014 30.779C97.0898 31.4582 97.6845 32.9489 97.3067 33.5013C96.7801 34.2705 92.4154 34.2604 91.4725 34.0417C89.6711 33.6244 90.1472 31.2202 88.8991 30.4252C87.8541 29.7607 83.4996 29.8673 82.5704 30.8433C81.349 32.1254 82.1798 35.3734 78.2977 33.7549V33.7559ZM86.2954 19.5645C85.4324 20.2548 83.6806 25.9089 83.847 26.4888C84.0703 27.2654 87.9083 27.2672 88.1317 26.4888C88.3679 25.6653 86.402 20.8292 86.2954 19.5645Z" fill="black"/>
<path d="M63.5513 13.064C63.7773 13.1265 64.417 13.9297 64.554 14.2275C65.6771 16.663 66.3544 21.6223 67.2661 24.5137C67.5878 25.5357 67.8488 26.7544 68.505 27.6082L72.2318 14.006C78.0744 9.82427 74.9164 18.4304 74.2051 21.2409C73.5222 23.9384 71.4727 32.3671 69.607 33.9737C68.7624 34.7007 67.71 34.7439 66.6467 34.7448C64.3214 34.7457 63.5752 34.333 62.6285 32.2467C61.0946 28.8664 57.8677 18.8863 57.2823 15.3111C57.2106 14.8709 57.0323 13.064 57.6711 13.064C59 13.064 62.5872 12.7984 63.5513 13.064Z" fill="black"/>
<path d="M25.2344 13.1239L41.2832 13.0504C43.0919 12.8427 42.9899 16.0704 42.046 16.6274C40.7612 17.3856 37.5334 15.8066 36.9204 17.6917C36.2476 22.4736 37.3367 28.0468 36.7991 32.7349C36.5454 34.9453 30.5889 34.2826 30.1239 33.495L29.9107 17.6154C29.5164 16.2726 27.1957 16.9242 26.1223 16.7616C24.0948 16.4537 23.4772 14.2139 25.2344 13.1248V13.1239Z" fill="black"/>
<path d="M132.011 13.1266C132.979 12.8417 137.578 12.7332 137.921 13.9005L137.832 33.494C137.33 34.3433 133.017 34.2835 132.084 33.9738C130.152 33.3323 131.166 30.6642 131.187 29.3261C131.256 24.8769 130.608 18.5914 131.161 14.4436C131.241 13.8398 131.342 13.3242 132.011 13.1275V13.1266Z" fill="black"/>
<path d="M134.187 0.746678C137.606 0.401109 140.222 5.8475 136.211 7.7325C130.837 10.2581 128.8 1.29077 134.187 0.746678Z" fill="black"/>
<path d="M46.8399 13.064H52.4103C52.8028 13.064 53.1447 14.0327 53.1998 14.4416C53.9397 19.9358 52.6024 27.0577 53.2017 32.7338C53.2853 34.8826 46.8013 34.3983 46.4263 33.2844C46.2645 27.8325 46.4594 22.3732 46.3895 16.9204C46.373 15.6052 45.5559 14.2974 46.8399 13.064Z" fill="black"/>
<path d="M47.3996 7.39707C43.7665 4.11692 48.4225 -1.3451 52.1126 1.60143C55.5517 4.34852 50.8985 10.5559 47.3996 7.39707Z" fill="black"/>
</svg>
