<svg width="139" height="35" viewBox="0 0 139 35" fill="none" xmlns="http://www.w3.org/2000/svg">
<path d="M5.63258 28.7387C8.83277 31.9977 14.2341 30.4914 13.1937 25.9723C12.4429 22.7115 2.44617 20.4478 0.652151 15.3047C-3.14635 4.41468 10.5395 -2.68971 18.6833 4.3917C20.5987 6.05705 22.1307 8.0165 18.9554 9.3179C16.5235 10.3142 16.5226 7.73159 14.6073 6.61125C10.3253 4.10679 5.76033 8.76278 9.39524 12.133C13.0642 15.5345 21.2098 16.2072 21.9276 22.5028C23.0737 32.5574 13.565 37.3733 5.00485 33.8552C1.99766 32.619 -2.81181 28.7387 2.30647 26.7158C4.64366 25.7922 4.34496 27.4263 5.63441 28.7387H5.63258Z" fill="white"/>
<path d="M113.15 31.0879C114.418 32.3525 113.4 33.9627 111.535 34.1217C109.738 34.2761 105.001 34.0234 103.618 33.0372C101.881 31.7983 101.587 28.8601 101.451 26.8482C101.004 20.2558 100.905 9.20857 101.451 2.68411C101.532 1.71449 101.612 0.55463 102.682 0.201708C103.64 -0.114451 108.183 -0.17235 108.539 0.88182L108.609 28.0458C109.119 31.6568 112.197 30.1394 113.149 31.0879H113.15Z" fill="white"/>
<path d="M122.664 0.37537C123.118 0.512311 123.389 1.59865 123.444 2.07105C124.384 10.1193 122.356 20.4469 123.458 28.3628C123.962 31.9803 129.81 29.6376 127.925 33.4921C127.229 34.9167 120.969 33.3644 119.325 33.7338C116.852 33.1741 116.447 29.2304 116.307 27.1579C115.838 20.2392 115.763 8.93373 116.304 2.06186C116.351 1.46631 116.486 0.941515 116.628 0.37445C118.188 0.666714 121.343 -0.0225867 122.663 0.37445L122.664 0.37537Z" fill="white"/>
<path d="M78.2977 33.7559C77.7693 32.9122 79.5109 28.1689 79.8905 26.9272C80.7139 24.2334 83.2791 15.3507 84.7459 13.6063C86.2467 11.8214 89.7603 11.9483 91.0672 14.0208C92.7923 16.755 95.9089 27.202 96.9015 30.779C97.0899 31.4582 97.6845 32.9489 97.3068 33.5013C96.7802 34.2706 92.4155 34.2605 91.4725 34.0417C89.6712 33.6245 90.1472 31.2202 88.8992 30.4252C87.8542 29.7607 83.4996 29.8673 82.5705 30.8434C81.349 32.1255 82.1799 35.3734 78.2977 33.755V33.7559ZM86.2954 19.5646C85.4324 20.2548 83.6807 25.9089 83.847 26.4888C84.0704 27.2654 87.9084 27.2673 88.1317 26.4888C88.3679 25.6653 86.4021 20.8292 86.2954 19.5646Z" fill="white"/>
<path d="M63.5513 13.064C63.7773 13.1265 64.417 13.9298 64.554 14.2276C65.6771 16.6631 66.3544 21.6224 67.2661 24.5137C67.5878 25.5357 67.8488 26.7544 68.505 27.6082L72.2318 14.0061C78.0744 9.8243 74.9164 18.4304 74.2051 21.241C73.5222 23.9384 71.4727 32.3672 69.607 33.9737C68.7624 34.7007 67.71 34.7439 66.6467 34.7448C64.3214 34.7457 63.5752 34.3331 62.6285 32.2468C61.0946 28.8665 57.8677 18.8863 57.2823 15.3111C57.2106 14.8709 57.0323 13.064 57.6711 13.064C59 13.064 62.5872 12.7984 63.5513 13.064Z" fill="white"/>
<path d="M25.2344 13.1238L41.2832 13.0503C43.0919 12.8426 42.9899 16.0703 42.046 16.6273C40.7612 17.3855 37.5334 15.8066 36.9204 17.6916C36.2476 22.4735 37.3367 28.0467 36.7991 32.7349C36.5454 34.9452 30.5889 34.2826 30.1239 33.4949L29.9107 17.6153C29.5164 16.2725 27.1957 16.9241 26.1223 16.7615C24.0948 16.4536 23.4772 14.2138 25.2344 13.1247V13.1238Z" fill="white"/>
<path d="M132.011 13.1265C132.979 12.8416 137.578 12.7331 137.921 13.9003L137.832 33.4939C137.33 34.3431 133.017 34.2834 132.084 33.9737C130.152 33.3322 131.166 30.6641 131.187 29.326C131.256 24.8767 130.608 18.5912 131.161 14.4435C131.241 13.8397 131.342 13.3241 132.011 13.1274V13.1265Z" fill="white"/>
<path d="M134.187 0.746617C137.606 0.401048 140.222 5.84743 136.211 7.73244C130.837 10.258 128.8 1.2907 134.187 0.746617Z" fill="white"/>
<path d="M46.8399 13.064H52.4103C52.8028 13.064 53.1447 14.0327 53.1998 14.4416C53.9397 19.9358 52.6024 27.0577 53.2017 32.7338C53.2853 34.8826 46.8013 34.3983 46.4263 33.2844C46.2645 27.8325 46.4594 22.3732 46.3895 16.9204C46.373 15.6052 45.5559 14.2974 46.8399 13.064Z" fill="white"/>
<path d="M47.3996 7.39707C43.7666 4.11692 48.4226 -1.3451 52.1126 1.60143C55.5518 4.34852 50.8985 10.5559 47.3996 7.39707Z" fill="white"/>
</svg>
