<svg width="40" height="40" viewBox="0 0 40 40" fill="none" xmlns="http://www.w3.org/2000/svg">
<path d="M20 0.5C30.7696 0.5 39.5 9.23045 39.5 20C39.5 30.7696 30.7696 39.5 20 39.5C9.23045 39.5 0.5 30.7696 0.5 20C0.5 9.23045 9.23045 0.5 20 0.5Z" fill="#306D68"/>
<path d="M20 0.5C30.7696 0.5 39.5 9.23045 39.5 20C39.5 30.7696 30.7696 39.5 20 39.5C9.23045 39.5 0.5 30.7696 0.5 20C0.5 9.23045 9.23045 0.5 20 0.5Z" stroke="#306D68" stroke-linecap="round"/>
<path d="M23 25V26C23 27.6569 21.6569 29 20 29C18.3431 29 17 27.6569 17 26V25M23 25H17M23 25H26.5905C26.973 25 27.1652 25 27.3201 24.9478C27.616 24.848 27.8475 24.6156 27.9473 24.3198C27.9997 24.1643 27.9997 23.9715 27.9997 23.5859C27.9997 23.4172 27.9995 23.3329 27.9863 23.2524C27.9614 23.1004 27.9024 22.9563 27.8126 22.8312C27.7651 22.7651 27.7048 22.7048 27.5858 22.5858L27.1963 22.1963C27.0706 22.0706 27 21.9001 27 21.7224V18C27 14.134 23.866 11 20 11C16.134 11 13 14.134 13 18V21.7224C13 21.9002 12.9292 22.0706 12.8036 22.1963L12.4141 22.5858C12.2948 22.7051 12.235 22.765 12.1875 22.8312C12.0977 22.9564 12.0381 23.1004 12.0132 23.2524C12 23.3329 12 23.4172 12 23.586C12 23.9715 12 24.1642 12.0525 24.3197C12.1523 24.6156 12.3848 24.848 12.6807 24.9478C12.8356 25 13.027 25 13.4096 25H17" stroke="white" stroke-linecap="round" stroke-linejoin="round"/>
</svg>
