<svg width="352" height="303" viewBox="0 0 352 303" fill="none" xmlns="http://www.w3.org/2000/svg">
<path d="M76.1507 81.9616C88.1168 112.872 100.125 143.911 112.003 174.906C112.726 176.419 110.537 177.795 109.38 178.895C104.387 183.644 101.925 187.663 100.788 194.358C99.1457 204.026 103.681 214.722 113.348 218.946C112.477 219.336 113.524 219.927 113.84 220.193C117.343 223.174 121.589 223.978 125.879 225.617C119.796 229.121 117.106 236.231 119.451 242.607C110.911 247.277 104.659 250.701 94.8195 247.595C71.4232 240.212 53.1181 206.777 56.9976 183.877C60.111 165.502 81.8669 149.49 70.9569 130.297C65.798 121.22 59.9129 120.205 61.3494 107.508C62.4205 98.0647 67.7453 87.325 76.1542 81.9576L76.1507 81.9616ZM113.018 242.032C113.742 241.202 113.345 239.333 112.416 238.695C111.299 237.931 103.911 238.353 102.254 238.674C99.4832 239.209 99.6914 242.007 101.96 243.032C103.998 242.887 111.889 243.324 113.018 242.032Z" fill="#DFF2EF" fill-opacity="0.7"/>
<path d="M71.7479 71.3387C72.914 72.3118 73.0587 73.5858 73.5977 74.8467C72.8199 74.9935 72.0641 74.9582 71.286 74.8881C66.7227 74.4837 51.5081 73.1829 48.2359 71.5451C47.066 70.9585 45.8461 69.8983 45.7916 68.5168C51.93 69.9165 65.1892 71.0356 71.7476 71.335L71.7479 71.3387Z" fill="#ACF2E5" fill-opacity="0.7"/>
<path d="M88.4162 77.5585C93.4051 76.9687 99.8263 77.409 104.354 79.6073C105.077 79.9582 105.311 79.7019 105.205 80.8293C100.022 81.2747 94.7874 81.9453 89.6018 82.2255C89.3417 80.7779 88.9104 78.919 88.4159 77.5549L88.4162 77.5585Z" fill="#DFF2EF" fill-opacity="0.7"/>
<path d="M88.4164 77.5583C88.9109 78.9225 89.3422 80.7813 89.6023 82.229C88.8111 82.2703 87.2484 82.7007 86.706 82.1314C84.7128 77.1065 83.2305 71.7416 80.9375 66.8428C83.4088 66.6106 84.584 68.8442 85.506 70.6518C86.428 72.4594 87.6927 75.5638 88.4167 77.562L88.4164 77.5583Z" fill="#ACF2E5" fill-opacity="0.7"/>
<path d="M266.241 199.756C264.022 200.149 256.233 200.857 255.195 202.598C254.474 203.806 255.05 205.486 256.439 205.95C257.587 206.337 266.052 204.425 266.956 203.535C267.051 203.442 267.607 202.278 267.612 202.204C274.159 207.785 279.044 214.915 277.013 223.761C272.487 243.471 245.023 257.95 225.258 258.538C196.838 259.382 191.295 240.738 169.781 230.866C161.74 227.177 152.916 225.76 143.766 227.476C142.938 226.716 142.014 226.052 141.024 225.497L142.41 224.428L222.012 217.628C217.89 220.527 215.59 225.241 215.929 230.113C216.269 234.984 219.192 239.326 223.678 241.613C224.005 243.467 226.111 244.646 227.622 245.39C239.481 251.201 252.119 242.205 249.759 229.685C249.189 226.673 246.256 222.038 243.029 221.036C241.67 219.113 239.836 217.541 237.69 216.465C238.144 215.622 239.213 215.769 239.856 215.704C243.202 215.372 248.211 215.398 251.252 214.666C252.944 214.257 254.672 212.463 254.872 210.79C255.143 208.537 253.225 204.355 250.239 205.229C249.983 203.358 247.568 200.787 245.445 200.874L125.914 211.592C122.61 211.575 119.468 210.746 116.69 209.097C114.094 204.291 113.386 198.35 116.447 193.509C120.907 186.45 127.468 185.021 135.316 183.557C170.323 177.027 205.741 172.214 240.747 165.669C244.04 165.055 247.6 164.493 250.807 163.563C252.914 162.951 254.665 162.39 255.755 160.414C261.402 132.461 266.587 104.323 271.976 76.283C272.347 73.6499 270.357 70.2391 267.326 70.3631C267.247 69.815 266.407 67.8161 265.917 67.3562C265.255 66.7352 263.877 66.362 262.946 66.3387C257.712 66.204 252.158 67.6461 247.005 68.1587C221.333 70.7095 195.561 72.5634 169.881 74.6738C169.6 73.809 170.282 73.8767 170.791 73.5554C182.682 66.0341 189.286 57.3201 198.951 48.0086C226.747 21.2258 256.297 39.8324 273.637 65.7498C290.951 91.6254 289.495 113.808 278.657 141.843C271.965 159.151 257.823 181.509 266.245 199.756L266.241 199.756ZM256.216 187.496C255.165 187.807 249.921 193.913 249.514 195.027C248.726 197.205 251.805 198.573 253.501 197.182C254.44 194.983 259.51 191.309 259.193 189.182C258.98 187.741 257.638 187.071 256.212 187.492L256.216 187.496ZM261.625 222.321C260.515 222.405 253.271 224.267 252.468 224.78C250.397 226.098 251.258 228.897 254.056 228.797C255.289 228.753 262.43 227.195 263.255 226.635C265.235 225.289 263.864 222.15 261.629 222.32L261.625 222.321ZM263.756 237.549C262.811 236.644 260.333 236.16 259.215 235.723C258.001 235.247 256.057 234.031 254.813 233.907C252.047 233.632 250.591 236.417 252.972 238.047C253.827 238.632 261.286 241.528 262.206 241.56C264.29 241.627 265.104 238.844 263.752 237.549L263.756 237.549Z" fill="#DFF2EF" fill-opacity="0.7"/>
<path d="M266.241 199.756C266.603 200.536 267.686 200.925 267.612 202.204C267.607 202.278 267.055 203.441 266.956 203.535C266.056 204.428 257.588 206.337 256.439 205.95C255.05 205.483 254.473 203.802 255.195 202.598C256.233 200.858 264.018 200.146 266.241 199.756Z" fill="#4BA69D" fill-opacity="0.7"/>
<path d="M116.687 209.101C108.099 204.016 108.042 192.912 114.633 186.144C115.754 184.992 119.705 182.072 121.123 181.522C124.909 180.062 131.114 179.885 135.294 179.147C160.78 174.653 186.299 170.218 211.782 165.695C221.953 163.891 232.46 162.613 242.515 160.323C244.573 159.852 248.262 159.239 249.826 158.051C252.07 156.346 251.698 153.132 252.536 150.744L263.787 90.8867C264.848 86.3901 267.898 74.35 267.323 70.3675C270.353 70.2435 272.344 73.6543 271.973 76.2873C266.584 104.327 261.399 132.466 255.752 160.418C254.661 162.391 252.911 162.956 250.804 163.567C247.596 164.498 244.037 165.059 240.744 165.674C205.738 172.219 170.32 177.035 135.313 183.562C127.465 185.025 120.904 186.454 116.444 193.513C113.383 198.354 114.091 204.296 116.687 209.101Z" fill="#ACF2E5" fill-opacity="0.7"/>
<path d="M237.678 216.466C232.673 213.953 226.589 214.406 222.005 217.633L142.403 224.432L141.017 225.501C136.348 222.889 130.542 222.934 125.876 225.624C121.586 223.986 117.34 223.182 113.836 220.2C113.525 219.934 112.473 219.344 113.345 218.954C116.414 220.293 122.64 221.601 126.022 221.511L245.563 210.814C248.455 210.313 248.839 210.006 249.666 207.491C249.886 206.816 250.332 205.964 250.232 205.237C253.218 204.363 255.136 208.546 254.865 210.798C254.662 212.471 252.937 214.266 251.245 214.674C248.205 215.406 243.195 215.376 239.85 215.713C239.206 215.777 238.137 215.63 237.683 216.473L237.678 216.466Z" fill="#ACF2E5" fill-opacity="0.7"/>
<path d="M223.671 241.614C229.674 244.677 237.117 243.404 241.703 238.526C246.289 233.648 246.833 226.428 243.021 221.033C246.248 222.038 249.186 226.674 249.751 229.683C252.108 242.202 239.469 251.199 227.614 245.387C226.1 244.644 223.994 243.464 223.671 241.61L223.671 241.614Z" fill="#ACF2E5" fill-opacity="0.7"/>
<path d="M263.756 237.549C265.108 238.844 264.294 241.627 262.21 241.56C261.29 241.528 253.831 238.632 252.976 238.047C250.595 236.417 252.047 233.632 254.817 233.907C256.061 234.031 258.005 235.247 259.219 235.723C260.337 236.16 262.811 236.644 263.76 237.549L263.756 237.549Z" fill="#4BA69D" fill-opacity="0.7"/>
<path d="M261.625 222.321C263.86 222.147 265.232 225.29 263.252 226.636C262.426 227.195 255.285 228.754 254.053 228.798C251.255 228.897 250.398 226.102 252.465 224.781C253.271 224.267 260.512 222.41 261.622 222.321L261.625 222.321Z" fill="#4BA69D" fill-opacity="0.7"/>
<path d="M256.217 187.496C257.642 187.074 258.981 187.745 259.198 189.185C259.515 191.312 254.445 194.987 253.505 197.185C251.81 198.576 248.727 197.209 249.519 195.031C249.925 193.913 255.169 187.807 256.221 187.499L256.217 187.496Z" fill="#4BA69D" fill-opacity="0.7"/>
<path d="M245.495 227.739C244.796 219.925 237.612 214.184 229.453 214.915C221.293 215.645 215.243 222.57 215.942 230.384C216.641 238.198 223.825 243.939 231.984 243.209C240.144 242.479 246.194 235.554 245.495 227.739ZM235.907 228.645C235.668 225.968 233.207 224 230.411 224.25C227.615 224.5 225.543 226.874 225.782 229.551C226.022 232.229 228.482 234.197 231.279 233.946C234.075 233.696 236.147 231.323 235.907 228.645Z" fill="#34736C" fill-opacity="0.7"/>
<path d="M231.278 233.947C234.074 233.696 236.147 231.323 235.907 228.645C235.668 225.968 233.207 224 230.411 224.25C227.615 224.5 225.542 226.874 225.782 229.551C226.022 232.229 228.482 234.197 231.278 233.947Z" fill="#DFF2EF" fill-opacity="0.7"/>
<path d="M45.7915 68.5167C41.9579 67.6426 39.2476 64.0019 42.2043 60.7404C44.7869 57.8911 49.8844 58.8581 53.4052 59.1976C59.6258 59.7993 71.3587 61.0256 77.032 62.6765C79.5354 63.4049 79.9013 64.6187 80.9409 66.8387C83.2339 71.7375 84.7161 77.1024 86.7094 82.1273C87.2522 82.7002 88.8149 82.2699 89.6057 82.2249C94.7913 81.9447 100.03 81.2737 105.209 80.8287C126.777 78.9796 148.364 76.4449 169.877 74.6742C195.557 72.5602 221.33 70.71 247.001 68.1591C252.154 67.6465 257.708 66.2045 262.942 66.3392C263.874 66.3625 265.251 66.7393 265.913 67.3567C266.404 67.8166 267.243 69.8155 267.323 70.3636C267.898 74.3461 264.847 86.3826 263.787 90.8828C259.333 109.767 253.836 130.035 248.427 148.806C247.92 150.565 246.672 155.545 245.687 156.766C244.91 157.729 242.461 158.261 241.209 158.601C232.448 160.977 222.767 162.472 213.825 164.453C213.26 164.577 211.393 164.736 211.778 165.691C186.294 170.215 160.776 174.649 135.29 179.144C131.109 179.882 124.904 180.054 121.119 181.518C108.679 151.963 95.8599 122.553 84.1171 92.7218C81.4699 87.6414 80.0873 81.9734 77.7119 76.7547C76.6607 74.4475 75.5122 70.9245 72.2825 70.9634C72.0063 70.9661 71.7862 71.3388 71.7437 71.3353C65.1815 71.0362 51.922 69.9134 45.7877 68.5171L45.7915 68.5167ZM101.574 113.113C106.01 112.87 110.458 112.204 114.895 111.921C113.424 106 111.238 100.238 109.492 94.4079C109.296 93.7599 109.018 89.6735 108.115 89.7543L90.7982 91.3039L98.5472 112.762C99.0738 113.712 100.565 113.17 101.574 113.113ZM143.364 91.3769C143.104 89.9661 143.249 88.4565 142.935 87.0468C134.079 86.9016 125.111 88.3843 116.331 89.3906L122.523 110.62C123.058 111.569 124.537 111.025 125.55 110.971C132.653 110.582 139.762 109.519 146.863 109.064C145.53 103.517 144.883 97.8307 143.836 92.2283C143.748 91.7545 143.37 91.4426 143.361 91.3809L143.364 91.3769ZM180.665 88.0391C180.556 86.5192 180.389 85.1698 180.651 83.635L150.584 86.3255L154.097 107.814C154.511 108.747 156.937 108.14 157.903 108.076C166.03 107.54 174.183 106.656 182.231 105.535C181.778 99.7067 181.084 93.8743 180.666 88.0428L180.665 88.0391ZM193.298 104.905C200.896 104.376 208.502 103.464 216.094 102.829C216.636 96.8744 216.818 90.798 216.82 84.804C216.819 83.2081 217.12 81.6331 216.776 80.0311L187.471 82.6534L189.031 104.371C189.423 105.796 191.974 104.998 193.299 104.909L193.298 104.905ZM255.231 80.9991C255.246 80.9132 255.664 80.611 255.738 80.233C255.981 78.9978 256.318 77.7431 256.359 76.4891L224.197 79.3671L223.743 102.185C225.134 102.071 226.537 101.912 227.933 101.81C236.087 101.19 244.163 100.254 252.241 99.2521C252.93 93.7407 254.199 88.3062 255.219 82.8461C255.344 82.1804 255.143 81.4408 255.227 81.0031L255.231 80.9991ZM117.778 122.684C117.433 121.405 117.256 119.682 117.006 118.344L101.403 119.74L109.579 142.112C110.582 142.126 111.588 141.951 112.592 141.88C116.014 141.636 119.448 141.218 122.869 140.96C121.646 134.752 119.429 128.773 117.778 122.684ZM148.607 119.925C148.368 118.498 148.425 116.988 148.215 115.551L124.236 117.697L130.096 140.317C131.287 140.288 132.306 139.788 133.487 139.642C138.748 138.999 145.494 139.163 150.444 138.143C150.848 138.059 151.322 138.079 151.559 137.683C151.836 137.221 150.844 131.286 150.672 130.213C150.116 126.788 149.177 123.338 148.603 119.925L148.607 119.925ZM183.241 116.826C183.092 115.376 182.995 113.906 182.85 112.452L155.636 114.887C155.499 114.899 155.226 115.332 155.18 115.538L158.958 136.999C160.224 136.9 161.501 136.749 162.768 136.658C170.016 136.123 177.203 134.866 184.438 134.193C184.803 133.899 184.699 133.456 184.713 133.062C184.875 128.561 183.725 121.548 183.241 116.829L183.241 116.826ZM215.971 113.897L216.341 109.455L190.08 111.805L191.623 133.34C193.014 133.227 194.417 133.068 195.813 132.966C202.56 132.454 209.241 131.551 215.955 130.799L215.975 113.9L215.971 113.897ZM250.224 110.832C250.467 109.343 251.001 107.883 250.976 106.356L223.191 108.842L223.177 130.149C224.744 130.02 226.139 129.557 227.712 129.376C234.032 128.641 240.441 128.512 246.732 127.497C247.451 126.995 249.886 112.881 250.221 110.832L250.224 110.832ZM244.362 139.638C244.493 138.865 245.988 134.856 245.429 134.402L223.064 136.819L222.634 154.071C224.203 154.096 225.66 153.564 227.168 153.297C232.211 152.401 237.208 151.215 242.252 150.3C243.449 149.608 244.059 141.397 244.362 139.638ZM215.819 142.192C215.836 140.628 215.649 139.005 215.776 137.423L192.587 139.862L193.934 159.213C195.414 159.4 196.882 158.684 198.092 158.473C203.771 157.483 209.51 156.738 215.097 155.322C215.438 150.982 215.766 146.54 215.815 142.196L215.819 142.192ZM185.817 145.612C185.657 144.038 185.545 142.449 185.393 140.874L160.303 143.486L163.718 164.487C165.022 164.462 166.228 164.001 167.491 163.782C174.023 162.631 180.554 161.337 187.154 160.555C186.663 155.583 186.316 150.584 185.817 145.612ZM153.911 149.203C153.767 148.33 153.793 144.632 152.853 144.506L131.829 146.774L137.63 168.046C138.238 169.389 140.45 168.062 141.012 167.99C146.325 167.293 151.642 166.546 156.898 165.465C155.88 160.058 154.8 154.632 153.907 149.207L153.911 149.203ZM126.125 151.689C125.744 150.263 125.297 148.829 124.972 147.383L112.413 148.507L120.623 171.649C121.687 171.693 122.622 171.154 123.634 171.008C124.794 170.842 130.558 170.374 130.748 169.408C129.049 163.544 127.693 157.58 126.125 151.686L126.125 151.689Z" fill="#4BA69D" fill-opacity="0.7"/>
<path d="M121.123 181.522C119.702 182.072 115.754 184.992 114.633 186.144C113.65 186.449 113.86 185.706 113.574 185.169C112.32 182.828 110.99 181.013 109.38 178.899C110.538 177.799 112.726 176.423 112.003 174.91C100.125 143.911 88.117 112.876 76.1509 81.9655C75.2411 79.6089 74.5999 77.2062 73.594 74.8471C73.0591 73.5896 72.9102 72.3122 71.7441 71.3391C71.7867 71.3427 72.0068 70.9699 72.283 70.9673C75.5089 70.9287 76.6611 74.4513 77.7124 76.7585C80.0877 81.9773 81.4704 87.6452 84.1176 92.7256C95.8604 122.556 108.683 151.967 121.119 181.522L121.123 181.522Z" fill="#4BA69D" fill-opacity="0.7"/>
<path d="M109.38 178.899C110.986 181.013 112.319 182.824 113.574 185.168C113.86 185.706 113.65 186.449 114.632 186.144C108.042 192.911 108.099 204.015 116.687 209.101C119.464 210.746 122.607 211.579 125.91 211.596L245.441 200.878C247.565 200.791 249.98 203.362 250.235 205.233C250.335 205.963 249.889 206.816 249.669 207.487C248.415 207.422 247.305 208.014 246.103 208.188C230.096 210.521 212.128 211.184 195.829 212.654C174.848 214.546 151.672 217.738 130.738 218.125C116.98 218.382 104.977 211.182 101.606 198.054C101.288 196.822 101.622 195.321 100.792 194.365C101.929 187.67 104.391 183.651 109.384 178.902L109.38 178.899Z" fill="#4BA69D" fill-opacity="0.7"/>
<path d="M255.231 80.9992C255.147 81.4369 255.348 82.1765 255.223 82.8422C254.199 88.3026 252.93 93.7335 252.244 99.2482C244.163 100.254 236.091 101.186 227.937 101.806L228.24 83.7785L255.231 80.9992Z" fill="#DFF2EF" fill-opacity="0.7"/>
<path d="M180.665 88.0393C181.087 93.8704 181.782 99.7029 182.23 105.532C174.183 106.653 166.029 107.537 157.902 108.073L154.781 90.3555L180.661 88.0396L180.665 88.0393Z" fill="#DFF2EF" fill-opacity="0.7"/>
<path d="M216.82 84.8038C216.819 90.7978 216.636 96.8742 216.094 102.828C208.502 103.464 200.896 104.376 193.299 104.905L192.078 87.0141L216.819 84.8002L216.82 84.8038Z" fill="#DFF2EF" fill-opacity="0.7"/>
<path d="M183.241 116.826C183.725 121.545 184.875 128.557 184.713 133.058C184.698 133.453 184.803 133.896 184.438 134.189C177.199 134.867 170.012 136.124 162.768 136.654L159.646 118.934L183.245 116.822L183.241 116.826Z" fill="#DFF2EF" fill-opacity="0.7"/>
<path d="M143.364 91.3772C143.377 91.4385 143.751 91.7507 143.839 92.2245C144.886 97.8269 145.529 103.513 146.867 109.06C139.765 109.515 132.653 110.578 125.553 110.967L120.912 93.3862L143.368 91.3768L143.364 91.3772Z" fill="#DFF2EF" fill-opacity="0.7"/>
<path d="M215.971 113.897L215.951 130.796C209.237 131.547 202.556 132.45 195.809 132.962L194.276 115.834L215.97 113.893L215.971 113.897Z" fill="#DFF2EF" fill-opacity="0.7"/>
<path d="M148.607 119.925C149.181 123.338 150.119 126.784 150.676 130.213C150.848 131.286 151.84 137.22 151.563 137.683C151.326 138.079 150.852 138.063 150.448 138.143C145.498 139.163 138.752 138.998 133.491 139.642L128.437 121.73L148.607 119.925Z" fill="#DFF2EF" fill-opacity="0.7"/>
<path d="M250.224 110.832C249.889 112.877 247.454 126.995 246.735 127.497C240.444 128.512 234.032 128.641 227.716 129.375L227.768 112.838L250.224 110.828L250.224 110.832Z" fill="#DFF2EF" fill-opacity="0.7"/>
<path d="M185.817 145.612C186.319 150.58 186.667 155.583 187.154 160.555C180.554 161.337 174.023 162.631 167.491 163.782L164.881 147.486L185.817 145.612Z" fill="#DFF2EF" fill-opacity="0.7"/>
<path d="M153.911 149.203C154.804 154.632 155.884 160.058 156.902 165.461C151.646 166.542 146.326 167.294 141.016 167.986L136.403 150.766L153.91 149.199L153.911 149.203Z" fill="#DFF2EF" fill-opacity="0.7"/>
<path d="M215.819 142.192C215.769 146.536 215.437 150.978 215.1 155.318C209.513 156.734 203.77 157.479 198.095 158.469C198.19 156.567 196.361 144.665 197.163 144.02C198.352 143.064 213.167 142.897 215.822 142.188L215.819 142.192Z" fill="#DFF2EF" fill-opacity="0.7"/>
<path d="M109.492 94.4078C111.242 100.238 113.424 106 114.895 111.921C110.459 112.207 106.01 112.87 101.574 113.113L95.4087 95.668L109.492 94.4078Z" fill="#DFF2EF" fill-opacity="0.7"/>
<path d="M211.782 165.694C211.393 164.74 213.264 164.58 213.829 164.456C222.771 162.475 232.452 160.98 241.213 158.604C242.465 158.264 244.914 157.732 245.691 156.769C246.676 155.548 247.924 150.568 248.431 148.809C253.84 130.038 259.333 109.77 263.791 90.886L252.54 150.743C251.702 153.131 252.074 156.345 249.83 158.05C248.266 159.242 244.577 159.855 242.519 160.322C232.464 162.616 221.957 163.89 211.786 165.694L211.782 165.694Z" fill="#4BA69D" fill-opacity="0.7"/>
<path d="M227.933 101.806C226.541 101.912 225.138 102.071 223.743 102.181L224.197 79.3634L256.359 76.4855C256.314 77.7398 255.977 78.9944 255.738 80.2293C255.664 80.6073 255.246 80.9095 255.23 80.9955L228.239 83.7747L227.936 101.802L227.933 101.806Z" fill="#ACF2E5" fill-opacity="0.7"/>
<path d="M117.778 122.684C119.425 128.773 121.646 134.752 122.869 140.96C119.448 141.222 116.014 141.636 112.592 141.88L105.604 123.773L117.782 122.683L117.778 122.684Z" fill="#DFF2EF" fill-opacity="0.7"/>
<path d="M193.298 104.905C191.974 104.998 189.423 105.796 189.03 104.368L187.471 82.6495L216.776 80.0272C217.119 81.6292 216.818 83.2042 216.819 84.8001L192.077 87.014L193.298 104.905Z" fill="#ACF2E5" fill-opacity="0.7"/>
<path d="M157.902 108.073C156.936 108.137 154.51 108.744 154.096 107.81L150.583 86.3184L180.651 83.6279C180.389 85.1663 180.552 86.516 180.665 88.0356L154.784 90.3515L157.906 108.072L157.902 108.073Z" fill="#ACF2E5" fill-opacity="0.7"/>
<path d="M227.716 129.375C226.139 129.561 224.744 130.02 223.181 130.149L223.194 108.842L250.979 106.355C251.005 107.883 250.471 109.343 250.228 110.832L227.772 112.841L227.719 129.375L227.716 129.375Z" fill="#ACF2E5" fill-opacity="0.7"/>
<path d="M244.362 139.638C244.062 141.397 243.45 149.612 242.252 150.3C237.207 151.214 232.21 152.397 227.168 153.297L227.571 140.931L244.362 139.634L244.362 139.638Z" fill="#DFF2EF" fill-opacity="0.7"/>
<path d="M162.764 136.654C161.498 136.749 160.221 136.897 158.955 136.995L155.176 115.535C155.226 115.328 155.495 114.896 155.632 114.884L182.846 112.448C182.991 113.899 183.088 115.368 183.237 116.822L159.638 118.934L162.76 136.655L162.764 136.654Z" fill="#ACF2E5" fill-opacity="0.7"/>
<path d="M195.81 132.966C194.418 133.072 193.015 133.231 191.619 133.341L190.076 111.805L216.338 109.455L215.967 113.898L194.269 115.839L195.802 132.967L195.81 132.966Z" fill="#ACF2E5" fill-opacity="0.7"/>
<path d="M125.553 110.967C124.54 111.021 123.057 111.566 122.527 110.617L116.334 89.3868C125.114 88.3805 134.081 86.8941 142.938 87.043C143.252 88.4527 143.107 89.9623 143.368 91.3731L120.912 93.3825L125.553 110.967Z" fill="#ACF2E5" fill-opacity="0.7"/>
<path d="M167.491 163.781C166.225 164.005 165.022 164.462 163.718 164.487L160.303 143.486L185.393 140.874C185.545 142.448 185.657 144.038 185.817 145.612L164.881 147.486L167.491 163.781Z" fill="#ACF2E5" fill-opacity="0.7"/>
<path d="M133.488 139.642C132.306 139.788 131.287 140.284 130.096 140.317L124.236 117.697L148.216 115.551C148.425 116.988 148.368 118.494 148.607 119.925L128.437 121.73L133.491 139.642L133.488 139.642Z" fill="#ACF2E5" fill-opacity="0.7"/>
<path d="M227.169 153.301C225.657 153.568 224.203 154.099 222.634 154.074L223.064 136.822L245.43 134.406C245.989 134.859 244.497 138.869 244.363 139.642L227.572 140.938L227.169 153.304L227.169 153.301Z" fill="#ACF2E5" fill-opacity="0.7"/>
<path d="M198.092 158.473C196.886 158.684 195.414 159.4 193.934 159.213L192.587 139.862L215.776 137.423C215.649 139.005 215.836 140.628 215.819 142.192C213.163 142.901 198.349 143.068 197.16 144.024C196.357 144.669 198.19 156.57 198.092 158.473Z" fill="#ACF2E5" fill-opacity="0.7"/>
<path d="M141.012 167.99C140.45 168.062 138.234 169.393 137.63 168.046L131.829 146.774L152.853 144.506C153.797 144.631 153.767 148.326 153.911 149.203L136.403 150.77L141.016 167.989L141.012 167.99Z" fill="#ACF2E5" fill-opacity="0.7"/>
<path d="M126.126 151.689C127.694 157.583 129.049 163.548 130.749 169.412C130.555 170.378 124.791 170.846 123.635 171.012L116.614 152.541L126.126 151.689Z" fill="#DFF2EF" fill-opacity="0.7"/>
<path d="M109.492 94.408L95.4085 95.6682L101.574 113.117C100.565 113.17 99.0739 113.715 98.5473 112.766L90.7983 91.3076L108.116 89.758C109.015 89.6776 109.296 93.7636 109.492 94.4116L109.492 94.408Z" fill="#ACF2E5" fill-opacity="0.7"/>
<path d="M112.588 141.88C111.588 141.951 110.582 142.126 109.575 142.113L101.399 119.74L117.002 118.344C117.252 119.682 117.429 121.406 117.774 122.684L105.596 123.774L112.584 141.88L112.588 141.88Z" fill="#ACF2E5" fill-opacity="0.7"/>
<path d="M123.634 171.012C122.622 171.157 121.688 171.697 120.624 171.652L112.413 148.511L124.972 147.387C125.297 148.829 125.744 150.263 126.126 151.693L116.614 152.544L123.635 171.015L123.634 171.012Z" fill="#ACF2E5" fill-opacity="0.7"/>
<path d="M249.669 207.487C248.846 210.002 248.459 210.309 245.566 210.807L126.025 221.503C122.64 221.6 116.414 220.293 113.348 218.953C103.682 214.729 99.1499 204.033 100.788 194.366C101.619 195.325 101.285 196.822 101.602 198.055C104.973 211.182 116.98 218.382 130.734 218.125C151.669 217.738 174.844 214.546 195.825 212.654C212.124 211.184 230.093 210.522 246.1 208.188C247.301 208.015 248.412 207.423 249.665 207.487L249.669 207.487Z" fill="#4BA69D" fill-opacity="0.7"/>
<path d="M126.263 250.29C132.229 253.411 139.675 252.223 144.324 247.405C148.969 242.588 149.619 235.385 145.898 229.937C147.572 229.85 149.059 231.831 149.971 233.055C158.193 244.094 147.768 258.985 133.885 255.488C131.395 254.861 126.888 253.073 126.262 250.286L126.263 250.29Z" fill="#DFF2EF" fill-opacity="0.7"/>
<path d="M111.982 247.795C114.324 247.059 116.129 248.784 115.076 250.956C114.862 251.395 108.462 256.303 107.788 256.628C105.244 257.841 103.036 255.998 104.162 253.731C104.49 253.069 111.221 248.039 111.982 247.799L111.982 247.795Z" fill="#4BA69D" fill-opacity="0.7"/>
<path d="M113.018 242.032C111.893 243.324 104.001 242.886 101.96 243.032C99.6873 242.008 99.483 239.209 102.254 238.674C103.911 238.353 111.299 237.931 112.416 238.695C113.344 239.333 113.742 241.202 113.018 242.032Z" fill="#4BA69D" fill-opacity="0.7"/>
<path d="M148.249 236.471C147.55 228.65 140.358 222.902 132.191 223.633C124.023 224.364 117.966 231.297 118.666 239.118C119.366 246.94 126.558 252.687 134.725 251.956C142.892 251.226 148.949 244.292 148.249 236.471ZM138.51 237.35C138.27 234.676 135.814 232.715 133.022 232.965C130.23 233.215 128.161 235.584 128.4 238.255C128.639 240.925 131.095 242.889 133.887 242.64C136.68 242.39 138.749 240.02 138.51 237.35Z" fill="#34736C" fill-opacity="0.7"/>
<path d="M133.892 242.643C136.683 242.393 138.753 240.023 138.513 237.349C138.274 234.676 135.817 232.711 133.025 232.961C130.233 233.211 128.164 235.58 128.403 238.254C128.643 240.928 131.1 242.892 133.892 242.643Z" fill="#DFF2EF" fill-opacity="0.7"/>
</svg>
