<svg width="25" height="25" viewBox="0 0 25 25" fill="none" xmlns="http://www.w3.org/2000/svg">
<path d="M18.037 9.02437L21.0492 12.0121M21.0492 12.0121L18.0614 15.0243M21.0492 12.0121L11.0492 12.0528M14.0289 7.0409C14.0251 6.10902 14.0232 5.64309 13.8694 5.27617C13.6645 4.78694 13.2733 4.39895 12.7824 4.19796C12.4143 4.04721 11.9486 4.04911 11.0167 4.0529L6.21672 4.07243C5.09663 4.07699 4.53697 4.07927 4.11004 4.299C3.7345 4.49227 3.42918 4.79926 3.23897 5.17636C3.02293 5.60465 3.02521 6.16443 3.02976 7.28234L3.06885 16.8889C3.0734 18.0068 3.07568 18.5658 3.29519 18.9923C3.48846 19.3679 3.79627 19.6729 4.17337 19.8631C4.60166 20.0791 5.16084 20.0769 6.27874 20.0723L11.0818 20.0528C12.0137 20.049 12.4794 20.047 12.8463 19.8932C13.3355 19.6883 13.7235 19.2974 13.9245 18.8066C14.0753 18.4384 14.0734 17.9725 14.0696 17.0406" stroke="#2C2C2C" stroke-linecap="round" stroke-linejoin="round"/>
</svg>
