<svg width="19" height="19" viewBox="0 0 19 19" fill="none" xmlns="http://www.w3.org/2000/svg">
<path d="M14.5 14.5C13.3954 14.5 12.5 15.3954 12.5 16.5C12.5 17.6046 13.3954 18.5 14.5 18.5C15.6046 18.5 16.5 17.6046 16.5 16.5C16.5 15.3954 15.6046 14.5 14.5 14.5ZM14.5 14.5H6.79395C6.33288 14.5 6.10193 14.5 5.91211 14.418C5.74466 14.3456 5.59938 14.2291 5.49354 14.0805C5.3749 13.914 5.32719 13.6913 5.23274 13.2505L2.77148 1.76465C2.67484 1.31363 2.62587 1.08838 2.50586 0.919922C2.40002 0.771349 2.25477 0.654413 2.08732 0.582048C1.89746 0.5 1.66779 0.5 1.20653 0.5H0.5M3.5 3.5H16.3732C17.095 3.5 17.4555 3.5 17.6978 3.65036C17.91 3.78206 18.0653 3.98862 18.133 4.229C18.2104 4.50343 18.111 4.84996 17.911 5.54346L16.5264 10.3435C16.4068 10.7581 16.3469 10.965 16.2256 11.1189C16.1185 11.2547 15.9772 11.361 15.817 11.4263C15.6361 11.5 15.4211 11.5 14.9921 11.5H5.23047M5.5 18.5C4.39543 18.5 3.5 17.6046 3.5 16.5C3.5 15.3954 4.39543 14.5 5.5 14.5C6.60457 14.5 7.5 15.3954 7.5 16.5C7.5 17.6046 6.60457 18.5 5.5 18.5Z" stroke="#5FDBD1" stroke-linecap="round" stroke-linejoin="round"/>
</svg>
